<svg xmlns="http://www.w3.org/2000/svg" width="400" height="700" viewBox="0 0 400 700" fill="none">
  <defs>
    <linearGradient id="g" x1="0" y1="0" x2="1" y2="1">
      <stop offset="0" stop-color="#342EBB"/><stop offset="1" stop-color="#691E9A"/>
    </linearGradient>
    <radialGradient id="glow" cx="0.8" cy="0.15" r="0.7">
      <stop offset="0" stop-color="#ffffff" stop-opacity="0.28"/><stop offset="1" stop-color="#ffffff" stop-opacity="0"/>
    </radialGradient>
    <pattern id="dots" width="26" height="26" patternUnits="userSpaceOnUse">
      <circle cx="2" cy="2" r="1.6" fill="#ffffff" fill-opacity="0.10"/>
    </pattern>
  </defs>
  <rect width="400" height="700" fill="url(#g)"/>
  <rect width="400" height="700" fill="url(#dots)"/>
  <rect width="400" height="700" fill="url(#glow)"/>
  <g font-family="Montserrat, Arial, sans-serif">
    <rect x="46" y="44" rx="16" width="150" height="40" fill="#ffffff" fill-opacity="0.16"/>
    <text x="66" y="70" fill="#fff" font-size="19" font-weight="800" letter-spacing="1">MOBIADS</text>
    <path d="M330 52c1.2 10 9.6 18.4 19.6 19.6C339.6 72.8 331.2 81.2 330 91c-1.2-9.8-9.6-18.2-19.6-19.4C320.4 70.4 328.8 62 330 52Z" fill="#fff" fill-opacity="0.9"/>
    <text fill="#ffffff" font-size="60" font-weight="800" letter-spacing="-1" y="470"><tspan x="46" dy="0">МОБ.</tspan><tspan x="46" dy="74">ФОРУМ</tspan></text>
    <rect x="46" y="590" width="70" height="5" rx="2.5" fill="#ffffff" fill-opacity="0.5"/>
    <text x="46" y="636" fill="#fff" fill-opacity="0.92" font-size="26" font-weight="700">2026</text>
  </g>
</svg>